<svg width="139" height="56" viewBox="0 0 139 56" fill="none" xmlns="http://www.w3.org/2000/svg">
<path d="M32.0316 49.1274C32.5382 49.1274 32.9261 49.2738 33.1949 49.5667C33.4638 49.8532 33.5983 50.267 33.5983 50.8082V54.2839C33.5983 54.825 33.4638 55.242 33.1949 55.5349C32.9261 55.8214 32.5382 55.9646 32.0316 55.9646C31.5252 55.9646 31.1374 55.8212 30.8686 55.5349C30.5996 55.242 30.4651 54.825 30.4651 54.2839V50.8082C30.4651 50.267 30.5996 49.8532 30.8686 49.5667C31.1374 49.2738 31.5252 49.1274 32.0316 49.1274ZM65.7395 49.1274C66.2461 49.1274 66.6274 49.2738 66.884 49.5667C67.1466 49.8532 67.2781 50.267 67.2781 50.8082V51.4573H66.3024V50.7412C66.3024 50.4993 66.2524 50.3307 66.1523 50.2351C66.0586 50.1333 65.9301 50.0823 65.7677 50.0823C65.605 50.0823 65.4737 50.1333 65.3738 50.2351C65.2799 50.3307 65.233 50.4993 65.233 50.7412V54.3507C65.233 54.5926 65.2799 54.7614 65.3738 54.8569C65.4737 54.9523 65.605 55.0001 65.7677 55.0001C65.9301 55.0001 66.0586 54.9523 66.1523 54.8569C66.2524 54.7614 66.3024 54.5926 66.3024 54.3507V53.3959H67.2781V54.2839C67.2781 54.825 67.1466 55.242 66.884 55.5349C66.6274 55.8212 66.2461 55.9646 65.7395 55.9646C65.233 55.9646 64.8484 55.8214 64.5857 55.5349C64.3292 55.242 64.2012 54.825 64.2012 54.2839V50.8082C64.2012 50.267 64.3292 49.8532 64.5857 49.5667C64.8484 49.2738 65.233 49.1274 65.7395 49.1274ZM71.6377 49.1274C72.1442 49.1274 72.5318 49.2738 72.801 49.5667C73.0699 49.8532 73.2044 50.267 73.2044 50.8082V54.2839C73.2044 54.825 73.0699 55.242 72.801 55.5349C72.5318 55.8214 72.1442 55.9646 71.6377 55.9646C71.1311 55.9646 70.7432 55.8214 70.4743 55.5349C70.2053 55.242 70.0711 54.825 70.0711 54.2839V50.8082C70.0711 50.267 70.2053 49.8532 70.4743 49.5667C70.7432 49.2738 71.1311 49.1274 71.6377 49.1274ZM77.5145 49.1274C78.0211 49.1274 78.3997 49.2738 78.6497 49.5667C78.9063 49.8532 79.0343 50.267 79.0343 50.8082V51.0659H78.0587V50.7412C78.0587 50.4993 78.0118 50.3307 77.918 50.2351C77.8304 50.1333 77.7055 50.0823 77.5428 50.0823C77.3802 50.0823 77.252 50.1333 77.1581 50.2351C77.0706 50.3307 77.0267 50.4993 77.0267 50.7412C77.0268 50.9704 77.0769 51.1741 77.1768 51.3523C77.2768 51.5241 77.402 51.6898 77.5521 51.8489C77.7022 52.0016 77.8617 52.1576 78.0307 52.3168C78.2056 52.4695 78.3683 52.6383 78.5183 52.8229C78.6684 53.0075 78.7936 53.2177 78.8935 53.4533C78.9936 53.6887 79.0436 53.9657 79.0436 54.2839C79.0436 54.825 78.9124 55.242 78.6497 55.5349C78.3933 55.8214 78.0118 55.9646 77.5052 55.9646C76.9987 55.9646 76.6141 55.8212 76.3515 55.5349C76.0949 55.242 75.9667 54.825 75.9667 54.2839V53.8255H76.9424V54.3507C76.9424 54.5926 76.9893 54.7614 77.083 54.8569C77.1831 54.9523 77.3144 55.0001 77.4771 55.0001C77.6397 55.0001 77.7678 54.9523 77.8617 54.8569C77.9616 54.7614 78.0118 54.5926 78.0118 54.3507C78.0118 54.1215 77.9616 53.921 77.8617 53.749C77.7617 53.5709 77.6366 53.4054 77.4865 53.2527C77.3364 53.0936 77.1738 52.9375 76.9987 52.7847C76.8299 52.6255 76.6704 52.4537 76.5203 52.2691C76.3702 52.0844 76.245 51.8744 76.1451 51.6388C76.045 51.4033 75.9949 51.1264 75.9949 50.8082C75.9949 50.267 76.1201 49.8532 76.3702 49.5667C76.6266 49.2738 77.008 49.1274 77.5145 49.1274ZM106.042 49.1274C106.548 49.1274 106.93 49.2738 107.186 49.5667C107.449 49.8532 107.58 50.267 107.58 50.8082V51.4573H106.604V50.7412C106.604 50.4995 106.555 50.3307 106.454 50.2351C106.361 50.1333 106.232 50.0823 106.07 50.0823C105.907 50.0823 105.776 50.1333 105.676 50.2351C105.582 50.3307 105.535 50.4995 105.535 50.7412V54.3507C105.535 54.5926 105.582 54.7614 105.676 54.8569C105.776 54.9523 105.907 55.0001 106.07 55.0001C106.232 55.0001 106.361 54.9523 106.454 54.8569C106.555 54.7614 106.604 54.5926 106.604 54.3507V53.3959H107.58V54.2839C107.58 54.825 107.449 55.242 107.186 55.5349C106.93 55.8214 106.548 55.9646 106.042 55.9646C105.535 55.9646 105.15 55.8214 104.888 55.5349C104.631 55.242 104.503 54.825 104.503 54.2839V50.8082C104.503 50.267 104.631 49.8532 104.888 49.5667C105.15 49.2738 105.535 49.1274 106.042 49.1274ZM111.846 49.1274C112.352 49.1274 112.731 49.2738 112.981 49.5667C113.238 49.8532 113.366 50.267 113.366 50.8082V51.0659H112.39V50.7412C112.39 50.4993 112.343 50.3307 112.249 50.2351C112.162 50.1333 112.037 50.0823 111.874 50.0823C111.712 50.0823 111.583 50.1333 111.489 50.2351C111.402 50.3307 111.358 50.4993 111.358 50.7412C111.358 50.9704 111.408 51.1741 111.508 51.3523C111.608 51.5241 111.733 51.6898 111.883 51.8489C112.034 52.0016 112.193 52.1576 112.362 52.3168C112.537 52.4695 112.7 52.6383 112.85 52.8229C113 53.0075 113.125 53.2177 113.225 53.4533C113.325 53.6887 113.375 53.9657 113.375 54.2839C113.375 54.825 113.244 55.242 112.981 55.5349C112.725 55.8214 112.343 55.9646 111.837 55.9646C111.33 55.9646 110.945 55.8212 110.683 55.5349C110.426 55.242 110.298 54.825 110.298 54.2839V53.8255H111.274V54.3507C111.274 54.5926 111.321 54.7614 111.414 54.8569C111.515 54.9523 111.646 55.0001 111.808 55.0001C111.971 55.0001 112.099 54.9523 112.193 54.8569C112.293 54.7614 112.343 54.5926 112.343 54.3507C112.343 54.1215 112.293 53.921 112.193 53.749C112.093 53.5709 111.968 53.4054 111.818 53.2527C111.668 53.0936 111.505 52.9375 111.33 52.7847C111.161 52.6255 111.002 52.4537 110.852 52.2691C110.701 52.0844 110.577 51.8744 110.476 51.6388C110.376 51.4033 110.326 51.1264 110.326 50.8082C110.326 50.267 110.451 49.8532 110.702 49.5667C110.958 49.2738 111.339 49.1274 111.846 49.1274ZM25.4459 52.1163L26.8153 49.2039H27.8285L26.3932 52.1831L27.8285 55.8882H26.7685L25.7647 53.224L25.4459 53.8351V55.8882H24.4139V49.2039H25.4459V52.1163ZM38.0776 49.2039C38.6154 49.2039 39.0032 49.3311 39.2407 49.5858C39.4847 49.8404 39.6067 50.2257 39.6067 50.7412V51.2664C39.6067 51.954 39.3814 52.406 38.9312 52.6224C39.1937 52.7307 39.3721 52.909 39.4659 53.1572C39.5659 53.3991 39.6159 53.695 39.6159 54.0451V55.0765C39.6159 55.242 39.6224 55.3884 39.6348 55.5158C39.6474 55.6366 39.6786 55.7609 39.7286 55.8882H38.6779C38.6654 55.8436 38.6529 55.8023 38.6403 55.7641C38.6279 55.7258 38.6154 55.6782 38.6028 55.6208C38.5967 55.5635 38.5903 55.4903 38.584 55.4012V54.0165C38.584 53.7046 38.5309 53.485 38.4246 53.3577C38.3183 53.2305 38.1463 53.1667 37.9088 53.1667H37.5523V55.8882H36.5203V49.2039H38.0776ZM45.3604 50.1587H43.578V52.0207H44.9945V52.9758H43.578V54.9333H45.3604V55.8882H42.5461V49.2039H45.3604V50.1587ZM51.5907 55.8882H50.5495L50.3714 54.6755H49.1049L48.9266 55.8882H47.9791L49.0298 49.2039H50.5402L51.5907 55.8882ZM56.6679 53.2049V49.2039H57.5871V55.8882H56.5271L55.242 51.0469V55.8882H54.3132V49.2039H55.6079L56.6679 53.2049ZM84.0721 53.9496L84.7756 49.2039H86.2108V55.8882H85.2352V51.0945L84.5222 55.8882H83.5467L82.7774 51.1613V55.8882H81.8768V49.2039H83.3122L84.0721 53.9496ZM92.0272 50.1587H90.2448V52.0207H91.6612V52.9758H90.2448V54.9333H92.0272V55.8882H89.213V49.2039H92.0272V50.1587ZM97.8261 50.1587H96.7473V55.8882H95.7153V50.1587H94.6366V49.2039H97.8261V50.1587ZM101.582 55.8882H100.55V49.2039H101.582V55.8882ZM32.0316 50.0823C31.8691 50.0823 31.7379 50.1333 31.6377 50.2351C31.5439 50.3307 31.4971 50.4993 31.4971 50.7412V54.3507C31.4971 54.5926 31.5439 54.7645 31.6377 54.8664C31.7379 54.9619 31.8691 55.0096 32.0316 55.0096C32.1943 55.0096 32.3225 54.9619 32.4164 54.8664C32.5164 54.7645 32.5665 54.5926 32.5665 54.3507V50.7412C32.5665 50.4993 32.5164 50.3307 32.4164 50.2351C32.3225 50.1333 32.1943 50.0823 32.0316 50.0823ZM71.6377 50.0823C71.475 50.0823 71.3437 50.1333 71.2436 50.2351C71.1498 50.3307 71.103 50.4995 71.103 50.7412V54.3507C71.103 54.5926 71.1498 54.7645 71.2436 54.8664C71.3437 54.9619 71.475 55.0096 71.6377 55.0096C71.8002 55.0096 71.9285 54.9619 72.0223 54.8664C72.1224 54.7645 72.1724 54.5926 72.1724 54.3507V50.7412C72.1724 50.4995 72.1224 50.3307 72.0223 50.2351C71.9285 50.1333 71.8002 50.0823 71.6377 50.0823ZM49.2362 53.7681H50.2306L49.7335 50.388L49.2362 53.7681ZM37.5523 52.2118H37.9555C38.1495 52.2118 38.2995 52.1608 38.4059 52.059C38.5184 51.9571 38.5747 51.7725 38.5747 51.505V50.8464C38.5747 50.6045 38.5309 50.4294 38.4433 50.321C38.362 50.2129 38.2308 50.1587 38.0494 50.1587H37.5523V52.2118ZM15.6075 11.8954C20.944 11.8954 27.6573 14.314 27.6573 20.6487C27.6573 26.8107 21.1734 30.0355 15.2632 30.0355C11.5335 30.0355 7.68895 28.9414 5.45111 28.0775C6.02493 33.318 10.2138 36.4855 15.378 36.4855C19.6815 36.4853 23.1243 35.0457 26.5097 31.5904L28.2885 35.7943C24.8457 39.1344 20.5423 41.1499 15.2058 41.1499C7.11524 41.1499 2.05195e-05 35.9672 0 27.1562C0 18.3453 6.94307 11.8954 15.6075 11.8954ZM46.0283 11.8954C54.4632 11.8954 61.2914 17.9421 61.2914 26.5227C61.2914 35.1033 54.5205 41.1499 46.0283 41.1499C37.5932 41.1499 30.7076 35.1033 30.7076 26.5227C30.7076 18.0573 37.4211 11.8954 46.0283 11.8954ZM83.7248 11.8378C91.5285 11.8378 93.4222 20.7639 93.4222 28.8838V40.3439H87.971V29.1141C87.971 22.7794 86.9381 16.7328 81.5445 16.7328C77.872 16.7328 73.626 21.0519 70.6422 24.6223V40.3439H65.1335V12.5863H70.6422V19.6698C73.8554 16.0417 78.3311 11.8378 83.7248 11.8378ZM116.169 11.8378C123.973 11.8378 125.867 20.7639 125.867 28.8838V40.3439H120.415V29.1141C120.415 22.7794 119.383 16.7328 113.989 16.7328C110.316 16.7328 106.07 21.0519 103.087 24.6223V40.3439H97.5779V12.5863H103.087V19.6698C106.3 16.0417 110.776 11.8378 116.169 11.8378ZM136.277 40.3439H130.769V12.6439H136.277V40.3439ZM46.0283 16.7903C40.1754 16.7903 35.9291 20.7063 35.9291 26.5227C35.9291 32.5118 40.3475 36.3126 46.0283 36.3126C51.881 36.3126 56.0699 32.3391 56.0699 26.5227C56.0699 20.5911 51.7089 16.7903 46.0283 16.7903ZM15.9519 16.272C11.0171 16.272 7.05781 19.6698 5.96759 24.1617C7.74639 25.1406 10.9024 26.0619 14.4026 26.0619C17.5585 26.0619 22.2063 24.2768 22.2063 20.6487C22.2063 17.3662 18.6488 16.272 15.9519 16.272ZM138.024 4.46509L133.576 8.93002L129.128 4.46509L133.576 0L138.024 4.46509Z" fill="black"/>
</svg>
